<svg xmlns="http://www.w3.org/2000/svg" width="1024" height="1024" viewBox="0 0 1024 1024">
  <defs>
    <linearGradient id="tile" x1="0" y1="0" x2="0" y2="1">
      <stop offset="0" stop-color="#262626"/>
      <stop offset="1" stop-color="#141414"/>
    </linearGradient>
    <radialGradient id="gloss" cx="0.5" cy="0.08" r="0.9">
      <stop offset="0" stop-color="#fbe73b" stop-opacity="0.10"/>
      <stop offset="0.5" stop-color="#fbe73b" stop-opacity="0"/>
    </radialGradient>
  </defs>

  <!-- dark app tile -->
  <rect x="0" y="0" width="1024" height="1024" rx="224" fill="url(#tile)"/>
  <rect x="0" y="0" width="1024" height="1024" rx="224" fill="url(#gloss)"/>
  <rect x="2" y="2" width="1020" height="1020" rx="222" fill="none" stroke="#ffffff" stroke-opacity="0.05" stroke-width="2"/>

  <!-- JM brand mark -->
  <g fill="#fbe73b" transform="translate(189.84,150) scale(0.32)">
    <path d="M610.72,489.47q-168.55,0-277.64-87.53C260.35,343.62,192.27,242.88,128.89,98.85l123.16-77.3H275.8c50.44,103.63,99.76,170.92,148,210.56S534.35,297.9,610.72,297.9H790.06L1568,282.41l-2.16-256.24L1581.12,5l155.81,11.24V498.1l-927.19-13Z"/>
    <path d="M1672.31,1995l-28.1-415.52-64.8-620.82h-15.15l-356.51,898.16H1030.57L700,958.65H680.54L615.7,1560l-34.57,435h-188L537.91,613.21h255l64.84,201.66,265.76,731h17.27l280.91-737.52,64.84-195.18h252.81L1871.11,1995Z"/>
    <path d="M1309,613.25v23.09L1162.49,957.78l-54.34.9-6.45-2.77L955.3,637.24v-24Z"/>
  </g>

  <!-- switcher badge: zwei überlappende Screens (Program/Preview) -->
  <circle cx="800" cy="800" r="180" fill="#141414"/>
  <circle cx="800" cy="800" r="152" fill="#fbe73b"/>
  <g transform="translate(708,704) scale(8)" fill="#161616">
    <path d="M3 5h12a1 1 0 0 1 1 1v8a1 1 0 0 1-1 1H3a1 1 0 0 1-1-1V6a1 1 0 0 1 1-1z" opacity="0.5"/>
    <path d="M8 9h12a1 1 0 0 1 1 1v8a1 1 0 0 1-1 1H8a1 1 0 0 1-1-1v-8a1 1 0 0 1 1-1z"/>
  </g>
</svg>
